<svg xmlns="http://www.w3.org/2000/svg" width="21.821" height="19.982" viewBox="0 0 21.821 19.982">
  <path id="Icon" d="M30.662,30.422a47.71,47.71,0,0,1-5.425,5.239c-.739.657-1.6,1.4-2.486,2.2a1.25,1.25,0,0,1-1.68,0c-.89-.8-1.73-1.539-2.486-2.2a47.71,47.71,0,0,1-5.425-5.239,8.594,8.594,0,0,1-2.167-5.481,7.1,7.1,0,0,1,1.73-4.789A5.759,5.759,0,0,1,17.091,18.2a5.418,5.418,0,0,1,3.426,1.228,6.805,6.805,0,0,1,1.377,1.5,7.238,7.238,0,0,1,1.377-1.5,5.317,5.317,0,0,1,3.443-1.21,5.759,5.759,0,0,1,4.367,1.954,7.1,7.1,0,0,1,1.73,4.789,8.471,8.471,0,0,1-2.15,5.463Z" transform="translate(-10.992 -18.198)" fill="#fff"/>
</svg>
