<svg id="svgexport-17_95_" data-name="svgexport-17 (95)" xmlns="http://www.w3.org/2000/svg" width="108.751" height="108.751" viewBox="0 0 108.751 108.751">
  <path id="Path_25537" data-name="Path 25537" d="M164.738,336.994a6.636,6.636,0,0,0,6.3,4.541h1.74v-3.508h-1.74a3.128,3.128,0,0,1-2.971-2.145,6.608,6.608,0,0,0-3.329-3.838l-1.7-.847-1.57,3.138,1.7.847A3.112,3.112,0,0,1,164.738,336.994Z" transform="translate(-127.173 -260.849)" fill="#56878b"/>
  <path id="Path_25538" data-name="Path 25538" d="M97.755,41.108c-.216-.225-.421-.46-.644-.677l10.037-10.037a5.475,5.475,0,0,0-3.871-9.346,5.511,5.511,0,0,0-3.871,1.6L87.864,34.192a30.732,30.732,0,0,0-21.21-1.333v-9.67l-6.918-1.729a2.047,2.047,0,0,1-1.207-.849l-1.877-2.817a5.545,5.545,0,0,0-3.275-2.306L49.811,14.6a2.031,2.031,0,0,1-1.444-1.337l-.5-1.489a5.578,5.578,0,0,0-3.512-3.51L42.392,7.6a2.054,2.054,0,0,1-1.184-1.026,5.522,5.522,0,0,0-4.967-3.07H30.414a5.523,5.523,0,0,0-4.967,3.07A2.057,2.057,0,0,1,24.262,7.6L22.3,8.258a5.561,5.561,0,0,0-3.278,3.013L8.77,1.028A3.527,3.527,0,0,0,6.29,0,6.3,6.3,0,0,0,0,6.29,3.485,3.485,0,0,0,1.028,8.77l8.995,8.995c-.005.009-.014.016-.019.025L8.127,20.607a2.032,2.032,0,0,1-1.207.849L0,23.187v10.14A33.359,33.359,0,0,0,3.313,47.808,5.471,5.471,0,0,0,1.6,56.7L12.569,67.671a5.618,5.618,0,0,0-.73.861l-1.633,2.451a2.08,2.08,0,0,1-1.742.933H7.322A5.589,5.589,0,0,0,2.661,74.41L0,78.4v.531a29.852,29.852,0,0,0,29.819,29.819h7.016a29.868,29.868,0,0,0,28.452-20.9A33.261,33.261,0,0,0,108.751,56.13V49.113c0-3.324-3.815-6.083-11-8.006Zm4.131-15.976a1.967,1.967,0,0,1,3.357,1.391,1.952,1.952,0,0,1-.575,1.391L94.454,38.13a31.106,31.106,0,0,0-3.3-2.259Zm-.975,27.242C96.134,54.316,87.5,56.13,75.424,56.13s-20.706-1.814-25.483-3.756a27.425,27.425,0,0,1,50.969,0ZM42.1,56.13a33.7,33.7,0,0,0,.435,5.29c-.091-.005-.182-.028-.274-.028h-.9a2.092,2.092,0,0,1-1.987-1.431,5.6,5.6,0,0,0-5.313-3.831h-1.47a5.6,5.6,0,0,0-5.313,3.831,2.092,2.092,0,0,1-1.987,1.431h-.9a5.574,5.574,0,0,0-2.164.456L9.346,48.962a5.456,5.456,0,0,0-2.154-1.3A29.711,29.711,0,0,1,3.706,36.647c5.841,3.587,17.765,5.45,29.621,5.45a93.264,93.264,0,0,0,21-2.194q-.625.583-1.216,1.2C45.919,43.025,42.1,45.786,42.1,49.113Zm7.064-9.973a31.212,31.212,0,0,0-2.338,4.569c-.8-.589-1.217-1.145-1.217-1.612C45.605,48.535,46.456,47.389,49.161,46.156ZM6.29,3.508,17.226,14.443a2.014,2.014,0,0,1-.379.147l-3.571.893c-.147.037-.282.1-.426.149L3.508,6.29A2.784,2.784,0,0,1,6.29,3.508ZM7.772,24.86a5.544,5.544,0,0,0,3.273-2.306l1.877-2.817a2.032,2.032,0,0,1,1.207-.849L17.7,18a5.528,5.528,0,0,0,3.92-3.633l.491-1.48A2.056,2.056,0,0,1,23.4,11.589l1.966-.656a5.594,5.594,0,0,0,3.212-2.785,2.04,2.04,0,0,1,1.831-1.131H36.24a2.037,2.037,0,0,1,1.829,1.13,5.581,5.581,0,0,0,3.212,2.785l1.966.656A2.048,2.048,0,0,1,44.54,12.88l.495,1.482a5.529,5.529,0,0,0,3.92,3.631l3.566.891a2.046,2.046,0,0,1,1.207.849l1.877,2.817a5.545,5.545,0,0,0,3.275,2.306l3.543.886c-2.622,2.473-12.666,5.83-29.1,5.83s-26.472-3.357-29.1-5.827ZM3.508,29.508c5.764,3.668,17.828,5.573,29.819,5.573s24.055-1.9,29.819-5.573v2.065c0,2.38-10.524,7.016-29.819,7.016S3.508,33.953,3.508,31.573Zm0,23.325a1.967,1.967,0,0,1,3.357-1.391L26.1,70.674a4.049,4.049,0,0,1-.507.217A6.622,6.622,0,0,0,22.7,72.839L4.083,54.225a1.951,1.951,0,0,1-.575-1.391ZM5.58,76.356a2.083,2.083,0,0,1,1.742-.931H8.465a5.589,5.589,0,0,0,4.661-2.494l1.631-2.449a2.106,2.106,0,0,1,.3-.323l6.067,6.067a6.531,6.531,0,0,0-.077.966v1.74h3.508v-1.74A3.129,3.129,0,0,1,26.7,74.221a7.691,7.691,0,0,0,3.948-3.015l2.384-3.578-2.919-1.945-1.619,2.429L25.283,64.9h.009A5.6,5.6,0,0,0,30.6,61.069a2.092,2.092,0,0,1,1.987-1.431h1.47a2.092,2.092,0,0,1,1.987,1.431A5.6,5.6,0,0,0,41.362,64.9h.9a2.117,2.117,0,0,1,1.48.614l1.738,1.738a5.652,5.652,0,0,0,2.189,1.354l3.148,1.047a2.11,2.11,0,0,1,1.081.826l1.633,2.45a5.586,5.586,0,0,0,4.661,2.494h1.144a2.088,2.088,0,0,1,1.742.931l1.982,2.973C62,81.793,51.6,85.949,33.327,85.949S4.652,81.793,3.6,79.33Zm31.255,28.887H29.819A26.354,26.354,0,0,1,4.041,84.215C10,87.667,21.7,89.456,33.327,89.456s23.329-1.789,29.286-5.241A26.354,26.354,0,0,1,36.835,105.243ZM75.424,85.948a29.7,29.7,0,0,1-9.3-1.512,29.807,29.807,0,0,0,.531-5.5V78.4l-2.661-3.99a5.586,5.586,0,0,0-4.661-2.494H58.189a2.087,2.087,0,0,1-1.742-.931l-1.635-2.454a5.667,5.667,0,0,0-2.889-2.2L48.78,65.279a2.094,2.094,0,0,1-.823-.507L46.482,63.3q-.234-.954-.405-1.922c5.936,3.476,17.677,5.28,29.347,5.28,11.654,0,23.383-1.8,29.326-5.266A29.846,29.846,0,0,1,75.424,85.948Zm0-22.8c-19.295,0-29.819-4.636-29.819-7.016V54.065c5.764,3.668,17.828,5.573,29.819,5.573s24.055-1.9,29.819-5.573V56.13C105.243,58.51,94.718,63.146,75.424,63.146Zm28.6-12.424a30.808,30.808,0,0,0-2.328-4.561c2.692,1.233,3.541,2.373,3.541,2.952,0,.467-.418,1.021-1.214,1.609Z" transform="translate(0 0)" fill="#56878b"/>
  <path id="Path_25539" data-name="Path 25539" d="M136.95,87a1.7,1.7,0,0,1,2.633-.428l1.517,1.517a5.187,5.187,0,0,0,3.643,1.508H146.5a1.635,1.635,0,0,1,1.47.909l.816,1.63,3.138-1.57-.816-1.63a5.123,5.123,0,0,0-4.606-2.845h-1.754a1.66,1.66,0,0,1-1.163-.481l-1.517-1.517a5.182,5.182,0,0,0-3.645-1.51,5.125,5.125,0,0,0-4.608,2.849L133,87.058l3.138,1.57Z" transform="translate(-104.747 -65.04)" fill="#56878b"/>
  <circle id="Ellipse_1576" data-name="Ellipse 1576" cx="1.754" cy="1.754" r="1.754" transform="translate(21.049 24.557)" fill="#56878b"/>
  <circle id="Ellipse_1577" data-name="Ellipse 1577" cx="1.754" cy="1.754" r="1.754" transform="translate(31.573 10.524)" fill="#56878b"/>
  <circle id="Ellipse_1578" data-name="Ellipse 1578" cx="1.754" cy="1.754" r="1.754" transform="translate(14.032 21.049)" fill="#56878b"/>
  <circle id="Ellipse_1579" data-name="Ellipse 1579" cx="1.754" cy="1.754" r="1.754" transform="translate(24.557 14.032)" fill="#56878b"/>
  <circle id="Ellipse_1580" data-name="Ellipse 1580" cx="1.754" cy="1.754" r="1.754" transform="translate(66.654 45.605)" fill="#56878b"/>
  <circle id="Ellipse_1581" data-name="Ellipse 1581" cx="1.754" cy="1.754" r="1.754" transform="translate(77.178 45.605)" fill="#56878b"/>
  <circle id="Ellipse_1582" data-name="Ellipse 1582" cx="1.754" cy="1.754" r="1.754" transform="translate(71.916 38.589)" fill="#56878b"/>
  <circle id="Ellipse_1583" data-name="Ellipse 1583" cx="1.754" cy="1.754" r="1.754" transform="translate(82.44 42.097)" fill="#56878b"/>
  <circle id="Ellipse_1584" data-name="Ellipse 1584" cx="1.754" cy="1.754" r="1.754" transform="translate(73.67 50.867)" fill="#56878b"/>
  <circle id="Ellipse_1585" data-name="Ellipse 1585" cx="1.754" cy="1.754" r="1.754" transform="translate(56.13 47.359)" fill="#56878b"/>
  <circle id="Ellipse_1586" data-name="Ellipse 1586" cx="1.754" cy="1.754" r="1.754" transform="translate(87.702 45.605)" fill="#56878b"/>
</svg>
