<svg id="svgexport-6_-_2022-09-12T101445.088" data-name="svgexport-6 - 2022-09-12T101445.088" xmlns="http://www.w3.org/2000/svg" width="48.301" height="32.46" viewBox="0 0 48.301 32.46">
  <path id="Path_63" data-name="Path 63" d="M111.5,99.146l2.926-2.714a1.728,1.728,0,0,0,.447-.67l2.3-6.24a4.618,4.618,0,0,1,4.313-3h3.482v-.977a1.584,1.584,0,0,1,1.584-1.584h21.042a1.2,1.2,0,0,1,1.216,1.155,1.177,1.177,0,0,1-1.177,1.2H127.322V96.526a1.584,1.584,0,0,1-1.584,1.584h-9.565l-2.841,2.557V110.2h2.575a5.082,5.082,0,0,1,9.909,0h7.925a5.082,5.082,0,0,1,9.909,0h3.942a1.2,1.2,0,0,1,1.216,1.155,1.177,1.177,0,0,1-1.177,1.2h-4a5.083,5.083,0,0,1-9.869,0H125.8a5.083,5.083,0,0,1-9.869,0h-3.366a1.584,1.584,0,0,1-1.584-1.584V100.323a1.586,1.586,0,0,1,.524-1.177Zm13.466-3.39V88.874h-3.482a2.255,2.255,0,0,0-2.106,1.466l-2.006,5.416Zm13.729,18.31a2.73,2.73,0,1,0-2.73-2.73A2.73,2.73,0,0,0,138.7,114.066Zm-17.835,0a2.73,2.73,0,1,0-2.73-2.73A2.73,2.73,0,0,0,120.863,114.066Z" transform="translate(-110.979 -83.96)" fill="#56878b"/>
  <path id="Path_64" data-name="Path 64" d="M72.23,156.1H58.884a1.177,1.177,0,1,1,0-2.354H72.23a1.177,1.177,0,1,1,0,2.354Z" transform="translate(-30.55 -147.164)" fill="#56878b"/>
  <path id="Path_65" data-name="Path 65" d="M0,224.226a1.177,1.177,0,0,1,1.177-1.177h18.79a1.177,1.177,0,1,1,0,2.354H1.177A1.177,1.177,0,0,1,0,224.226Z" transform="translate(27.157 -209.928)" fill="#56878b"/>
  <path id="Path_66" data-name="Path 66" d="M33.476,293.528a1.177,1.177,0,0,1,1.177-1.177h8.18a1.177,1.177,0,1,1,0,2.354h-8.18a1.177,1.177,0,0,1-1.177-1.177Z" transform="translate(1.133 -272.692)" fill="#56878b"/>
</svg>
