<svg xmlns="http://www.w3.org/2000/svg" width="113.05" height="113.05" viewBox="0 0 113.05 113.05">
  <g id="svgexport-17_94_" data-name="svgexport-17 (94)" transform="translate(-0.5 -0.5)">
    <g id="Group_75763" data-name="Group 75763" transform="translate(20.239 7.285)">
      <path id="Path_25534" data-name="Path 25534" d="M63.987,32.992a13.024,13.024,0,0,1-13.01-13.01,2.692,2.692,0,0,0-5.383,0,13.024,13.024,0,0,1-13.01,13.01,2.692,2.692,0,0,0,0,5.383,13.024,13.024,0,0,1,13.01,13.01,2.692,2.692,0,1,0,5.383,0,13.024,13.024,0,0,1,13.01-13.01,2.692,2.692,0,1,0,0-5.383ZM82.38,13.926a6.962,6.962,0,0,1-6.953-6.953,2.692,2.692,0,1,0-5.383,0,6.962,6.962,0,0,1-6.953,6.953,2.692,2.692,0,0,0,0,5.383,6.962,6.962,0,0,1,6.953,6.953,2.692,2.692,0,1,0,5.383,0,6.962,6.962,0,0,1,6.953-6.953,2.692,2.692,0,1,0,0-5.383ZM36.174,16.618a2.692,2.692,0,0,0-2.692-2.692,6.962,6.962,0,0,1-6.953-6.953,2.692,2.692,0,1,0-5.383,0,6.962,6.962,0,0,1-6.953,6.953,2.692,2.692,0,0,0,0,5.383,6.962,6.962,0,0,1,6.953,6.953,2.692,2.692,0,1,0,5.383,0,6.962,6.962,0,0,1,6.953-6.953A2.692,2.692,0,0,0,36.174,16.618Z" transform="translate(-11.5 -4.281)" fill="#56878b"/>
    </g>
    <path id="Path_25535" data-name="Path 25535" d="M101.886,18.767h1.794v1.794a2.692,2.692,0,0,0,5.383,0V18.767h1.794a2.692,2.692,0,1,0,0-5.383h-1.794V11.59a2.692,2.692,0,0,0-5.383,0v1.794h-1.794a2.692,2.692,0,1,0,0,5.383ZM89.325,50.409a2.692,2.692,0,0,0,2.692-2.692,29.1,29.1,0,0,1,8.427-20.55,2.692,2.692,0,1,0-3.835-3.778,34.448,34.448,0,0,0-9.975,24.326,2.692,2.692,0,0,0,2.692,2.692ZM3.192,18.767H4.986v1.794a2.692,2.692,0,0,0,5.383,0V18.767h1.794a2.692,2.692,0,0,0,0-5.383H10.369V11.59a2.692,2.692,0,0,0-5.383,0v1.794H3.192a2.692,2.692,0,0,0,0,5.383Zm10.415,8.4a29.1,29.1,0,0,1,8.427,20.546,2.692,2.692,0,0,0,5.383,0A34.443,34.443,0,0,0,17.44,23.388a2.692,2.692,0,1,0-3.833,3.777ZM46.258,90.728H24.725a2.692,2.692,0,0,0,0,5.383H46.258a2.692,2.692,0,0,0,0-5.383Z" transform="translate(0 6.672)" fill="#56878b"/>
    <path id="Path_25536" data-name="Path 25536" d="M102.133,63.4a2.7,2.7,0,0,0-2.046-.94H13.956a2.692,2.692,0,0,0-2.042.94L1.147,75.965a2.693,2.693,0,0,0,2.042,4.441h8.075v26.863a6.288,6.288,0,0,0,6.281,6.281H96.5a6.288,6.288,0,0,0,6.281-6.281V80.408h8.075a2.693,2.693,0,0,0,2.044-4.443ZM9.039,75.023l6.153-7.178H51.169l-6.155,7.178Zm45.292,33.143H17.545a.9.9,0,0,1-.9-.9V80.408H46.256A2.692,2.692,0,0,0,48.3,79.47l6.029-7.038Zm43.067-.9a.9.9,0,0,1-.9.9H59.714V72.432l6.031,7.038a2.7,2.7,0,0,0,2.044.937H97.4ZM69.027,75.025l-6.151-7.178H98.851L105,75.025ZM52.536,10.369h1.794v1.794a2.692,2.692,0,1,0,5.383,0V10.369h1.794a2.692,2.692,0,0,0,0-5.383H59.714V3.192a2.692,2.692,0,1,0-5.383,0V4.986H52.536a2.692,2.692,0,0,0,0,5.383Z" transform="translate(0.002)" fill="#56878b"/>
  </g>
</svg>
