<svg xmlns="http://www.w3.org/2000/svg" width="29.663" height="37.45" viewBox="0 0 29.663 37.45">
  <g id="svgexport-6_-_2022-09-12T102525.689" data-name="svgexport-6 - 2022-09-12T102525.689" transform="translate(-4 -0.936)">
    <path id="Path_81" data-name="Path 81" d="M18.832.936,4,6.33V19.377a16.191,16.191,0,0,0,6.651,13.059l8.181,5.95,8.181-5.95a16.191,16.191,0,0,0,6.651-13.059V6.33Zm12.36,18.441a13.719,13.719,0,0,1-5.632,11.061L18.832,35.33,12.1,30.437A13.719,13.719,0,0,1,6.472,19.377V8.06l12.36-4.494L31.191,8.06Z" fill="#56878b"/>
    <path id="Path_82" data-name="Path 82" d="M12.041,14.133l-1.748,1.748L15.8,21.389l8.6-8.6-1.748-1.748L15.8,17.894Z" transform="translate(1.485 2.385)" fill="#56878b"/>
  </g>
</svg>
