<svg xmlns="http://www.w3.org/2000/svg" width="103.669" height="103.669" viewBox="0 0 103.669 103.669">
  <g id="svgexport-17_97_" data-name="svgexport-17 (97)" transform="translate(-1 -1)">
    <path id="Path_25541" data-name="Path 25541" d="M5,40.668V76.474H40.806l7.668-7.668V33H12.668ZM8.344,66.442V43.032H45.13V66.442ZM39.421,73.13H8.344V69.786H42.766ZM45.13,36.344v3.344H10.708l3.344-3.344Z" transform="translate(2.688 21.507)" fill="#56878b"/>
    <path id="Path_25542" data-name="Path 25542" d="M34.081,41A11.716,11.716,0,0,0,23.1,48.685a11.681,11.681,0,0,0-9.086-4.341H9v1.672a11.718,11.718,0,0,0,11.7,11.7h5.016V56.049a11.748,11.748,0,0,0-.134-1.672h1.806a11.718,11.718,0,0,0,11.7-11.7V41ZM20.7,54.377a8.374,8.374,0,0,1-8.192-6.688h1.5a8.374,8.374,0,0,1,8.192,6.688Zm6.688-3.344h-1.5a8.375,8.375,0,0,1,8.192-6.688h1.5a8.374,8.374,0,0,1-8.192,6.688Z" transform="translate(5.377 26.883)" fill="#56878b"/>
    <path id="Path_25543" data-name="Path 25543" d="M57.851,64.539V48.8L50.183,41.13H42.8V34.442h1.672a5.022,5.022,0,0,0,5.016-5.016V26.081a5.022,5.022,0,0,0-5.016-5.016H39.458V11.032a10.032,10.032,0,1,0-20.065,0V21.065H14.377A5.022,5.022,0,0,0,9.36,26.081v3.344a5.022,5.022,0,0,0,5.016,5.016h1.672V41.13H8.668L1,48.8v47.51a8.37,8.37,0,0,0,8.36,8.36H49.49a8.377,8.377,0,0,0,8.192-6.688H72.9a31.8,31.8,0,0,0,31.77-31.77V64.539ZM22.737,11.032a6.688,6.688,0,1,1,13.377,0V21.065H22.737ZM12.7,29.425V26.081a1.675,1.675,0,0,1,1.672-1.672h30.1a1.675,1.675,0,0,1,1.672,1.672v3.344A1.675,1.675,0,0,1,44.474,31.1h-30.1A1.675,1.675,0,0,1,12.7,29.425Zm6.688,5.016H39.458V41.13H19.393Zm-9.34,10.032H48.8l3.344,3.344H6.708ZM49.49,101.325H9.36a5.022,5.022,0,0,1-5.016-5.016V51.162H54.507V96.309A5.022,5.022,0,0,1,49.49,101.325Zm8.36-6.688V80.031c2.528.833,5.182,1.824,7.772,2.8,6.717,2.516,13.661,5.122,18.981,5.122a44.963,44.963,0,0,0,7.247-.6A28.284,28.284,0,0,1,72.9,94.636ZM95.982,82.771A31.7,31.7,0,0,1,84.6,84.6c-3.518,0-8.118-1.391-12.9-3.1,5.178-2.344,9.6-3.588,12.9-3.588,9.243,0,12.087,1.456,12.96,2.378A28.672,28.672,0,0,1,95.982,82.771Zm3.092-5.556c-2.54-1.789-7.26-2.644-14.47-2.644-4.48,0-10.3,1.8-17.281,5.319l-.527-.2c-2.98-1.117-6.038-2.254-8.946-3.17v-8.64h43.426A28.163,28.163,0,0,1,99.074,77.215Z" fill="#56878b"/>
    <path id="Path_25544" data-name="Path 25544" d="M55.864,54.507h.4A19.863,19.863,0,0,0,73.108,24.112L60.041,3.2a4.689,4.689,0,0,0-7.952,0L39.02,24.115A19.863,19.863,0,0,0,55.864,54.507ZM41.856,25.887,54.925,4.976a1.345,1.345,0,0,1,2.281,0L70.274,25.887A16.519,16.519,0,0,1,56.266,51.162h-.4A16.519,16.519,0,0,1,41.856,25.887Z" transform="translate(23.523)" fill="#56878b"/>
    <path id="Path_25545" data-name="Path 25545" d="M61.377,24.917A13.157,13.157,0,0,0,61.2,22.77l-3.3.547a9.844,9.844,0,0,1-9.7,11.432H48v3.344h.2A13.191,13.191,0,0,0,61.377,24.917Zm-4.414-4.458,2.98-1.518q-.263-.515-.569-1.007l-1.54-2.465L55,17.242l1.54,2.465q.228.366.425.752Z" transform="translate(31.588 9.725)" fill="#56878b"/>
  </g>
</svg>
