<svg xmlns="http://www.w3.org/2000/svg" width="117.001" height="112.151" viewBox="0 0 117.001 112.151">
  <g id="svgexport-17_96_" data-name="svgexport-17 (96)" transform="translate(0 -10.609)">
    <path id="Path_25540" data-name="Path 25540" d="M117,61.225a7.651,7.651,0,0,0-7.642-7.642H94.329l12.159-22.959.149.086a6.025,6.025,0,0,0,6.025-10.436l-15.249-8.8a6.025,6.025,0,0,0-6.025,10.436l.149.086L71.726,53.583h-4.65q.294-.455.565-.924a1.714,1.714,0,1,0-2.969-1.714,18.228,18.228,0,0,1-1.852,2.639H45.993a20.464,20.464,0,0,0,1.655-4.254l2.292-3.97,11.229-3.009a1.714,1.714,0,1,0-.887-3.311l-7.918,2.122,5.33-9.232,6.708-1.8a1.714,1.714,0,0,0-.887-3.311l-3.4.91,2.292-3.97a1.714,1.714,0,1,0-2.969-1.714l-6.05,10.479L52,27.328a1.714,1.714,0,1,0-3.311.887l2.28,8.508-2.772,4.8a21.329,21.329,0,0,0-6.115-12.557,22.013,22.013,0,0,0-1.932-1.7,66.3,66.3,0,0,1,13.727-9.946c5.486-2.925,9.941-3.99,11.917-2.849,3.944,2.277,4.725,17.1,1.548,29.378a1.714,1.714,0,1,0,3.319.859A68.681,68.681,0,0,0,72.684,25.45c-.237-5.136-1.328-11.724-5.177-13.946-3.971-2.293-10.481.254-15.244,2.793A68.65,68.65,0,0,0,37.3,25.256a65.724,65.724,0,0,0-15.34-6.913c-12.993-4.025-17.9-1.664-19.661.1C-1.555,22.294.287,31.43,1.727,36.533A67.125,67.125,0,0,0,9.2,53.583H7.642A7.642,7.642,0,0,0,6.306,68.748v3.108a42.1,42.1,0,0,0,15.275,32.5,1.714,1.714,0,0,0,2.189-2.638A38.687,38.687,0,0,1,9.734,71.856V68.867H97.074a1.714,1.714,0,1,0,0-3.428H7.417a4.214,4.214,0,0,1,0-8.428H109.574a4.214,4.214,0,0,1,0,8.428h-4.5a1.714,1.714,0,1,0,0,3.428h2.185v2.989a38.82,38.82,0,0,1-38.776,38.776H48.51a38.822,38.822,0,0,1-18.53-4.706,1.714,1.714,0,0,0-1.641,3.01,41.656,41.656,0,0,0,4.716,2.2,6.064,6.064,0,0,0,2.42,11.624H81.517a6.064,6.064,0,0,0,2.412-11.627,42.274,42.274,0,0,0,26.757-39.277V68.75A7.653,7.653,0,0,0,117,61.225ZM42.007,53.583h-2.15l-.835-.835V36.957a1.714,1.714,0,0,0-3.428,0V49.32L27.48,41.207V32.4a1.714,1.714,0,1,0-3.428,0v5.381l-2.387-2.387,0,0L15.5,29.223a1.714,1.714,0,1,0-2.424,2.424l3.242,3.242H12.8a1.714,1.714,0,0,0,0,3.428h6.945l7.538,7.538h-8.2a1.714,1.714,0,0,0,0,3.428H30.708l4.3,4.3H13.355C10.15,49.268,6.924,42.327,5.027,35.6c-2.042-7.235-2.16-12.881-.308-14.733,1.506-1.507,6.659-2.214,16.223.749A60.841,60.841,0,0,1,36.487,28.83q.06.046.124.085a22.239,22.239,0,0,1,3.046,2.477,17.633,17.633,0,0,1,2.35,22.192ZM92.152,15.391A2.6,2.6,0,0,1,95.7,14.44l15.249,8.8a2.6,2.6,0,0,1-2.6,4.5L93.1,18.938A2.6,2.6,0,0,1,92.152,15.391ZM75.772,53.583,94.508,23.708l9.009,5.2L90.45,53.583ZM84.153,116.7a2.639,2.639,0,0,1-2.636,2.636H35.474a2.636,2.636,0,1,1,0-5.272H81.517A2.639,2.639,0,0,1,84.153,116.7Z" fill="#56878b"/>
  </g>
</svg>
