<svg xmlns="http://www.w3.org/2000/svg" width="133.483" height="101.207" viewBox="0 0 133.483 101.207">
  <g id="svgexport-17_98_" data-name="svgexport-17 (98)" transform="translate(-16 -72.001)">
    <path id="Path_25546" data-name="Path 25546" d="M98.3,133.163a2.224,2.224,0,0,0,3-.94,36.212,36.212,0,0,1,7.053-9.385,2.224,2.224,0,1,0-3.077-3.213,40.651,40.651,0,0,0-7.918,10.537A2.224,2.224,0,0,0,98.3,133.163Zm13.683,14.192a2.224,2.224,0,0,0,2.219,2.1c.042,0,.085,0,.128,0a22.411,22.411,0,0,0,10.509-3.32,2.225,2.225,0,1,0-2.345-3.781,17.941,17.941,0,0,1-8.416,2.658A2.224,2.224,0,0,0,111.981,147.356Zm-21.209,2.975a2.224,2.224,0,0,0,.716-4.33,17.948,17.948,0,0,1-7.4-4.813,2.224,2.224,0,1,0-3.271,3.015,22.4,22.4,0,0,0,9.237,6.01A2.223,2.223,0,0,0,90.772,150.331Z" transform="translate(-46.373 -33.938)" fill="#56878b"/>
    <path id="Path_25547" data-name="Path 25547" d="M67.84,173.2l22.134.007a16.227,16.227,0,0,0,2.961-.272,51.754,51.754,0,0,0,7.584-1.342,14.639,14.639,0,0,0,6.353,1.485,25,25,0,0,0,11.2-2.592l.47-.233a6.732,6.732,0,0,1,6.728.449,14.581,14.581,0,0,0,8.1,2.492l1.385.006h.065a14.628,14.628,0,0,0,.063-29.256l-.53,0a51.952,51.952,0,0,0,5.171-22.582,2.224,2.224,0,0,0-2.224-2.224H135.3A17.046,17.046,0,0,0,131.272,102L117.448,87.761a2.224,2.224,0,0,0-3.816,1.687l.419,6.745a27.693,27.693,0,0,0-14.03-4.078,2.229,2.229,0,0,0-2.257,2.191,27.806,27.806,0,0,0,3.659,14.144l-5.352-.491a11.442,11.442,0,0,0-19.33-9.492,17.692,17.692,0,0,1-2.586,2.068A31,31,0,0,0,77.3,91.088l2.665-16.509a2.224,2.224,0,0,0-2.713-2.517L60.984,75.951A31.17,31.17,0,0,0,43.9,86.83a16.262,16.262,0,0,0-3.469,11.694q-.346-.5-.656-1.026a11.435,11.435,0,1,0-19.068,12.57,48.562,48.562,0,0,0,8.694,9.069H18.224A2.224,2.224,0,0,0,16,121.36,51.9,51.9,0,0,0,67.84,173.2Zm33.331-12.426a11.831,11.831,0,0,1-8.97,7.763q-1.509.143-3.03.191a11.837,11.837,0,0,1-5.666-1.9,26.7,26.7,0,0,1-10.646-13.7l-4.317-12.671,13.357.89a26.7,26.7,0,0,1,15.986,6.737,11.822,11.822,0,0,1,3.287,12.686Zm33.7-12.382a10.18,10.18,0,1,1-.044,20.36h-.045l-1.385-.006a10.148,10.148,0,0,1-5.639-1.735,11.189,11.189,0,0,0-11.184-.746l-.47.233a20.612,20.612,0,0,1-9.209,2.131,10.183,10.183,0,0,1-4.567-1.107,16.361,16.361,0,0,0,3.051-5.3c.056-.163.108-.326.159-.49a14.106,14.106,0,0,0,6.678,1.684,13.814,13.814,0,0,0,4.315-.687l.382-.126a2.224,2.224,0,1,0-1.39-4.226l-.381.125a9.548,9.548,0,0,1-8.864-1.592,16.247,16.247,0,0,0-2.224-8.223,10.193,10.193,0,0,1,2.886-.423h.044a20.675,20.675,0,0,1,9.189,2.212l.468.237a11.191,11.191,0,0,0,11.19-.648,10.112,10.112,0,0,1,5.654-1.685ZM114.4,101.9l.484,7.789-7.873-.723a2.223,2.223,0,0,0-.259-.459A23.333,23.333,0,0,1,102.3,96.717,23.245,23.245,0,0,1,114.4,101.9Zm2.661,12.455A2.224,2.224,0,0,0,119.489,112l-1.044-16.827,9.636,9.925a12.614,12.614,0,0,1,2.454,14.037H106.417l-6.14-6.325Zm-22.822-1.37,5.974,6.153h-13.5a48.858,48.858,0,0,0,5.034-3.457,11.517,11.517,0,0,0,2.493-2.695ZM79.836,101.66a6.986,6.986,0,1,1,9.171,10.516,44.274,44.274,0,0,1-11.925,6.671,2.214,2.214,0,0,0-.535.289H63.229a11.423,11.423,0,0,0-5.361-11.3,6.976,6.976,0,0,1,2.915-.155,22.26,22.26,0,0,0,7.556-.106,2.224,2.224,0,0,0,.41-.08,22.412,22.412,0,0,0,11.086-5.832ZM47.385,89.6a26.7,26.7,0,0,1,14.632-9.319l13.02-3.114L72.9,90.378a26.52,26.52,0,0,1-5.936,12.913,17.78,17.78,0,0,1-5.486-.006,11.416,11.416,0,0,0-9.239,2.613,2.256,2.256,0,0,0-.168.161,17.852,17.852,0,0,1-4.437-1.419A11.846,11.846,0,0,1,47.385,89.6ZM24.292,107.428a6.986,6.986,0,1,1,11.649-7.679,22.447,22.447,0,0,0,16.749,10.9,6.982,6.982,0,0,1,6.021,8.49H37.165l0,0a44.106,44.106,0,0,1-12.869-11.706Zm110.735,16.157a47.4,47.4,0,0,1-5.87,20.735,2.246,2.246,0,0,0-.137.3,14.622,14.622,0,0,0-3.642,1.738,6.733,6.733,0,0,1-6.732.389l-.468-.237A25.147,25.147,0,0,0,107,143.821a14.558,14.558,0,0,0-5.871,1.21c-.091-.086-.181-.172-.275-.256A31.17,31.17,0,0,0,82.2,136.912L65.509,135.8a2.224,2.224,0,0,0-2.252,2.937l5.394,15.829A31.185,31.185,0,0,0,78.6,168.753H67.84A47.449,47.449,0,0,1,20.5,123.584Z" transform="translate(0 0)" fill="#56878b"/>
    <path id="Path_25548" data-name="Path 25548" d="M169.384,327.778a2.224,2.224,0,1,0-1.67,4.123,12.835,12.835,0,0,0,10.878-.569,2.224,2.224,0,1,0-2.091-3.926A8.4,8.4,0,0,1,169.384,327.778Zm-37.3,1.893a36.194,36.194,0,0,1-10-6.144,2.224,2.224,0,1,0-2.911,3.364,40.624,40.624,0,0,0,11.23,6.9,2.224,2.224,0,1,0,1.684-4.117Zm-3.477-15.253a2.224,2.224,0,1,0-2.484,3.69,36.194,36.194,0,0,1,8.561,8.06,2.224,2.224,0,1,0,3.534-2.7A40.639,40.639,0,0,0,128.611,314.417Zm-39.5,13.477q.887.562,1.8,1.084a2.224,2.224,0,1,0,2.21-3.861q-.825-.472-1.628-.981a2.224,2.224,0,0,0-2.381,3.758Zm-7.54-5.938a2.224,2.224,0,1,0,3.094-3.2,42.432,42.432,0,0,1-8.455-11.534,2.224,2.224,0,1,0-3.979,1.99A46.858,46.858,0,0,0,81.572,321.957Z" transform="translate(-40.429 -168.94)" fill="#56878b"/>
  </g>
</svg>
