<svg xmlns="http://www.w3.org/2000/svg" width="128.421" height="108.657" viewBox="0 0 128.421 108.657">
  <g id="svgexport-17_99_" data-name="svgexport-17 (99)" transform="translate(0 -7.37)">
    <path id="Path_25549" data-name="Path 25549" d="M128.4,59.558a57.043,57.043,0,0,0-3.558-19.875l-7.878-21.319V8.707a1.337,1.337,0,0,0-1.337-1.337H55.251a1.337,1.337,0,0,0-1.337,1.337v9.656L46.035,39.683a57.35,57.35,0,0,0-3.558,19.875V77.105l-2.113-1.217a15.809,15.809,0,0,0-15.662,0L5.845,86.695H4.093A4.093,4.093,0,0,0,0,90.788v.9A4.106,4.106,0,0,0,4.093,95.79h.762v1.485A18.8,18.8,0,0,0,23.579,116c110.675,0,103.841.2,104.416-.468S128.4,118.112,128.4,59.558Zm-2.675,0v52.415l-8.76-6.834V98.451a1.337,1.337,0,1,0-2.675,0v6.687l-8.76,6.834V59.558a54.181,54.181,0,0,1,3.4-18.938L115.61,22.47c1.846,4.962.428,1.164,6.687,18.149a54.475,54.475,0,0,1,3.424,18.938Zm-10.1,47.935,7.543,5.885H108.08ZM60.186,95.79h.762a4.119,4.119,0,0,0,4.106-4.106v-.9a4.106,4.106,0,0,0-4.106-4.093H59.209l-.548-.321c0-35.938-1-33.878,5.564-51.626H94.719c-2.675,7.142-5.35,13.856-5.35,24.81V97.689a2.822,2.822,0,0,1-2.862,2.809c-27.11,0-25.546.187-26.508-.441a25.41,25.41,0,0,0,.187-4.267ZM69.7,19.956h30.494l-4.48,12.117H65.228ZM56.588,10.045h57.7v7.236h-57.7ZM45.153,59.531a54.181,54.181,0,0,1,3.4-18.912l7.624-20.664h10.7L59.557,39.683A57.35,57.35,0,0,0,56,59.558V84.849L45.153,78.63ZM26.04,78.255a13.08,13.08,0,0,1,12.987,0l14.819,8.48H11.221ZM2.675,91.684v-.9A1.431,1.431,0,0,1,4.093,89.37H60.962a1.431,1.431,0,0,1,1.431,1.418v.9a1.431,1.431,0,0,1-1.431,1.431H4.093A1.431,1.431,0,0,1,2.675,91.684Zm39.8,21.654H23.633a16.116,16.116,0,0,1-16.05-16.05v-1.5H57.511a19.366,19.366,0,0,1-.428,5.163,16.05,16.05,0,0,1-14.605,12.385Zm16.906-10.566c1.565.642.562.415,27.124.415a5.51,5.51,0,0,0,5.5-5.5V59.558a54.676,54.676,0,0,1,3.4-18.952l7.65-20.65h10.7l-7.343,19.728a57.351,57.351,0,0,0-3.558,19.875v53.819H51.091a18.938,18.938,0,0,0,8.292-10.606Z" transform="translate(0 0)" fill="#56878b"/>
    <path id="Path_25550" data-name="Path 25550" d="M92.78,59.805V67a3.3,3.3,0,0,0,3.29,3.29h7.2a3.3,3.3,0,0,0,3.29-3.29v-7.2a3.3,3.3,0,0,0-3.29-3.29h-7.2a3.3,3.3,0,0,0-3.29,3.29Zm11.1,0V67a.629.629,0,0,1-.615.615h-7.2A.629.629,0,0,1,95.455,67v-7.2a.629.629,0,0,1,.615-.615h7.2A.629.629,0,0,1,103.881,59.805Zm1.337,15.073h-11.1a1.337,1.337,0,0,0,0,2.675h11.1a1.337,1.337,0,0,0,0-2.675Zm0,5.711h-11.1a1.337,1.337,0,1,0,0,2.675h11.1a1.337,1.337,0,0,0,0-2.675Zm-5.55,5.724h-5.55a1.337,1.337,0,0,0,0,2.675h5.55a1.337,1.337,0,1,0,0-2.675ZM55.077,82.836h1.337V86.26a1.337,1.337,0,0,0,2.675,0v-3.4h1.19a7.744,7.744,0,0,0,7.744-7.744V72.525a1.337,1.337,0,0,0-1.337-1.337c-2.862,0-5.122-.281-7.624,1.9v-3.17H60.28a7.744,7.744,0,0,0,7.744-7.744V59.6a1.337,1.337,0,0,0-1.337-1.337c-2.942,0-5.256-.267-7.784,2.033V58.682l1.378-1.337a7.7,7.7,0,0,0,2.26-5.47c0-3.7-2.207-5.43-4.012-7.3a1.337,1.337,0,0,0-1.886,0l-1.819,1.819a7.717,7.717,0,0,0-2.274,5.484c0,3.544,2.02,5.229,3.7,6.9v1.337c-2.461-2.033-4.721-1.765-7.49-1.765a1.337,1.337,0,0,0-1.337,1.337v2.568A7.757,7.757,0,0,0,55.171,70h1.1V73.18c-2.528-2.207-4.949-1.913-7.65-1.913A1.337,1.337,0,0,0,47.28,72.6v2.568A7.757,7.757,0,0,0,55.077,82.836Zm8.974-8.974h1.23v1.23a5.069,5.069,0,0,1-5,5.069h-1.2V78.209A5.056,5.056,0,0,1,64.052,73.862Zm0-12.92h1.23v1.23a5.069,5.069,0,0,1-5,5.069H58.943v-1.23a5.069,5.069,0,0,1,5.109-5.069ZM56.6,48.236l.869-.869.869.869a5.056,5.056,0,0,1,0,7.182l-.869.869-.869-.869A5.082,5.082,0,0,1,56.6,48.236ZM55.077,67.242a5.069,5.069,0,0,1-5.069-5.069v-1.23h1.23a5.082,5.082,0,0,1,5.029,4.226v2.073Zm-5.069,6.687h1.23a5.069,5.069,0,0,1,5.029,5v1.23h-1.23a5.069,5.069,0,0,1-5.069-5.069ZM72.678,20.31H60.815a1.337,1.337,0,1,0,0,2.675H72.678a1.337,1.337,0,1,0,0-2.675Z" transform="translate(15.955 4.367)" fill="#56878b"/>
  </g>
</svg>
