<svg id="svgexport-7_-_2023-01-24T111357.087" data-name="svgexport-7 - 2023-01-24T111357.087" xmlns="http://www.w3.org/2000/svg" width="26.336" height="25.077" viewBox="0 0 26.336 25.077">
  <path id="Path_1340" data-name="Path 1340" d="M19.947,29.867a3.063,3.063,0,1,0,3.06,3.066v0A3.066,3.066,0,0,0,19.947,29.867ZM25.379,15.2a1.179,1.179,0,0,0-.222-.022H6.509l-.3-1.976a2.658,2.658,0,0,0-2.631-2.289h-2.4a1.181,1.181,0,0,0,0,2.363h2.4a.3.3,0,0,1,.3.26L5.7,26.007a3.266,3.266,0,0,0,3.216,2.758H21.205a3.249,3.249,0,0,0,3.187-2.6l1.923-9.584a1.181,1.181,0,0,0-.935-1.384ZM12.444,32.8a3.063,3.063,0,0,0-3.07-2.929,3.063,3.063,0,0,0,.071,6.122h.074A3.063,3.063,0,0,0,12.444,32.8Z" transform="translate(0 -10.915)" fill="#fff"/>
</svg>
