<svg xmlns="http://www.w3.org/2000/svg" width="31.67" height="36.539" viewBox="0 0 31.67 36.539">
  <g id="svgexport-6_-_2022-09-12T102031.026" data-name="svgexport-6 - 2022-09-12T102031.026" transform="translate(-2.13 -0.001)">
    <path id="Path_76" data-name="Path 76" d="M5.783,27.112A3.653,3.653,0,0,1,2.13,23.458V16.152A1.222,1.222,0,0,1,3.352,14.93H5.783a3.653,3.653,0,0,1,3.653,3.653v4.875a3.653,3.653,0,0,1-3.653,3.653Zm-1.222-9.75v6.1a1.222,1.222,0,0,0,2.432,0V18.583a1.222,1.222,0,0,0-1.222-1.222Z" transform="translate(0 2.115)" fill="#56878b"/>
    <path id="Path_77" data-name="Path 77" d="M3.521,14.6H3.327a1.222,1.222,0,0,1-1-1.4,15.826,15.826,0,0,1,31.213-.011,1.222,1.222,0,1,1-2.4.4,13.392,13.392,0,0,0-26.407,0A1.222,1.222,0,0,1,3.521,14.6Z" transform="translate(0.025 0)" fill="#56878b"/>
    <path id="Path_78" data-name="Path 78" d="M11.746,6.848a1.222,1.222,0,0,1-.559-2.283,12.364,12.364,0,0,1,11.154,0A1.222,1.222,0,1,1,21.2,6.723a9.773,9.773,0,0,0-8.916,0,1.21,1.21,0,0,1-.537.126Z" transform="translate(1.195 0.458)" fill="#56878b"/>
    <path id="Path_79" data-name="Path 79" d="M31.081,14.93H28.637a3.653,3.653,0,0,0-3.653,3.653v4.875a3.653,3.653,0,0,0,3.653,3.653,3.608,3.608,0,0,0,1.05-.171,3.642,3.642,0,0,1-3.482,2.614H19.881a3.653,3.653,0,1,0,0,2.432h6.325A6.1,6.1,0,0,0,32.291,25.9v-9.75a1.222,1.222,0,0,0-1.21-1.222ZM16.456,31.987a1.222,1.222,0,1,1,1.222-1.222,1.222,1.222,0,0,1-1.222,1.222Zm13.4-8.528a1.222,1.222,0,0,1-2.432,0V18.583a1.222,1.222,0,0,1,1.222-1.222H29.87Z" transform="translate(1.509 2.115)" fill="#56878b"/>
  </g>
</svg>
