<svg xmlns="http://www.w3.org/2000/svg" width="41.552" height="41.972" viewBox="0 0 41.552 41.972">
  <g id="svgexport-6_-_2022-09-12T102309.457" data-name="svgexport-6 - 2022-09-12T102309.457" transform="translate(0 0)">
    <g id="Group_70" data-name="Group 70" transform="translate(0 0)">
      <g id="XMLID_2109_" transform="translate(0 0)">
        <g id="XMLID_980_">
          <path id="XMLID_992_" d="M43.085,10.785,33.329,1.03a3.527,3.527,0,0,0-4.981,0L22.862,6.515a.82.82,0,1,0,1.159,1.159l5.486-5.486a1.885,1.885,0,0,1,2.663,0l9.755,9.755a1.885,1.885,0,0,1,0,2.663L25.853,30.68a1.883,1.883,0,0,1-2.663,0l-.671-.671,3.745-3.745a3.266,3.266,0,1,0-4.619-4.619l-3.321,3.321-.538.008c-.1,0-.2.006-.293.011l-4.059-4.059a1.885,1.885,0,0,1,0-2.663l5.371-5.371a.82.82,0,1,0-1.159-1.159L12.276,17.1a3.526,3.526,0,0,0,0,4.981l3.282,3.282a7.083,7.083,0,0,0-4.751,6.614l-.006.582-8,8a.82.82,0,1,0,1.159,1.159L12.2,33.484a.82.82,0,0,0,.24-.571l.01-.917a5.441,5.441,0,0,1,5.364-5.384l.87-.012a.82.82,0,0,0,.568-.24L22.8,22.8a1.627,1.627,0,0,1,2.3,2.3l-5.334,5.334A.82.82,0,0,0,20.93,31.6l.43-.43.671.671a3.527,3.527,0,0,0,4.981,0l3.807-3.807L28.7,33.774a5.665,5.665,0,0,1-3.761,3.478L18.383,39.1a.82.82,0,0,0-.357.209l-1.26,1.26a.82.82,0,1,0,1.159,1.159l1.109-1.109,6.35-1.794a7.309,7.309,0,0,0,4.853-4.487l3.353-9.08,9.5-9.5a3.527,3.527,0,0,0,0-4.981Z" transform="translate(-2.562 0)" fill="#56878b"/>
          <path id="XMLID_1133_" d="M324.075,160.139a.819.819,0,0,0,1.159,0l8.506-8.506a.82.82,0,1,0-1.159-1.159l-8.506,8.506A.82.82,0,0,0,324.075,160.139Z" transform="translate(-297.506 -137.922)" fill="#56878b"/>
          <path id="XMLID_1134_" d="M184.008,187.1l-2.739,2.739A.82.82,0,1,0,182.428,191l2.739-2.739a.82.82,0,0,0-1.159-1.159Z" transform="translate(-166.403 -171.543)" fill="#56878b"/>
          <path id="XMLID_1135_" d="M216.332,110.031a.82.82,0,1,0-.579-.24A.825.825,0,0,0,216.332,110.031Z" transform="translate(-198.06 -99.509)" fill="#56878b"/>
        </g>
      </g>
      <g id="Group_69" data-name="Group 69" transform="translate(25.51 5.93)">
        <path id="Path_80" data-name="Path 80" d="M316.745,78.182a2.911,2.911,0,1,1,2.91-2.911A2.914,2.914,0,0,1,316.745,78.182Zm0-4.182a1.271,1.271,0,1,0,1.271,1.271A1.273,1.273,0,0,0,316.745,74Z" transform="translate(-313.835 -72.361)" fill="#56878b"/>
      </g>
    </g>
  </g>
</svg>
